<svg width="127" height="109" viewBox="0 0 127 109" fill="none" xmlns="http://www.w3.org/2000/svg">
<g id="plane">
<g id="Group">
<path id="Vector" d="M74.1969 60.8684C72.8852 61.0018 71.624 61.4212 70.4916 62.1001C67.5384 63.8145 65.9243 66.645 66.8866 68.4217C67.8489 70.1985 71.0229 70.2482 73.9761 68.5338C75.126 67.8874 76.1294 66.9926 76.9245 65.9046C77.2921 65.3765 77.3226 64.6555 77.0024 64.066L75.7523 61.7579C75.4341 61.1669 74.8237 60.8182 74.1969 60.8684Z" fill="#D5D6DB"/>
<path id="Vector_2" d="M66.5836 33.8692C65.6324 33.9661 64.7178 34.2704 63.8967 34.7628C61.7558 36.0056 60.5846 38.0579 61.2818 39.3452C61.979 40.6325 64.2814 40.6684 66.422 39.4257C67.2558 38.9567 67.9833 38.3074 68.56 37.5185C68.8262 37.1356 68.8481 36.6132 68.616 36.1858L67.7109 34.5145C67.4804 34.0861 67.0381 33.8329 66.5836 33.8692Z" fill="#D5D6DB"/>
<path id="Vector_3" d="M54.0601 33.424C53.8443 33.3661 53.6192 33.3955 53.4289 33.506L48.4086 36.412C47.9886 36.6541 47.8471 37.2185 48.093 37.6728C48.1493 37.7769 48.2234 37.8697 48.3113 37.9457L61.7579 49.6344L78.4982 39.9444L54.0601 33.424Z" fill="#029BC5"/>
<path id="Vector_4" d="M109.344 36.9277L62.5274 65.6637L34.4086 74.7333L19.8838 75.8807L18.0923 72.3604L96.1901 25.6297C98.5171 24.2294 101.157 23.5613 103.842 23.6934C105.018 23.7587 106.189 23.99 107.326 24.3812C108.334 24.7187 109.3 25.2151 110.194 25.8556C111.193 26.579 113.039 26.936 113.696 28.1667C113.698 28.1652 115.384 33.605 109.344 36.9277Z" fill="#E1E6E9"/>
<path id="Vector_5" d="M61.9936 58.47L43.2123 93.3965C42.981 93.8921 43.1687 94.5151 43.6312 94.7881C43.915 94.9556 44.2512 94.9578 44.5246 94.794L49.6257 91.7442C50.6069 91.1572 51.4599 90.3518 52.1322 89.3777L89.6203 41.0464L61.9936 58.47Z" fill="#029BC5"/>
<path id="Vector_6" d="M10.6365 57.9198C10.2902 57.7448 9.89039 57.7516 9.56334 57.9379L5.45695 60.2771C4.8974 60.5955 4.70988 61.3364 5.03794 61.932C5.10043 62.0453 5.17907 62.1484 5.27132 62.2373L17.8568 74.3961L29.963 67.6731L10.6365 57.9198Z" fill="#029BC5"/>
<path id="Vector_7" d="M21.1502 75.2236L15.0988 84.9137C15.0099 85.0526 15.0433 85.2493 15.1734 85.3528C15.2672 85.4273 15.3901 85.4353 15.4863 85.3732L19.4349 83.0016C19.4655 82.9832 19.4929 82.9584 19.515 82.9287L28.4698 70.8327L21.1502 75.2236Z" fill="#029BC5"/>
<path id="Vector_8" d="M107.09 23.9399C105.942 23.5671 104.761 23.3482 103.574 23.2878C102.514 24.9291 101.886 26.8566 101.752 28.878C101.757 29.2888 102.073 29.6308 102.457 29.642C102.576 29.6453 102.693 29.616 102.796 29.5564L109.984 25.3473C109.082 24.7352 108.107 24.2613 107.09 23.9399Z" fill="#029BC5"/>
<path id="Vector_9" d="M91.0034 32.019L95.5162 29.5344L100.359 38.0557L95.8462 40.5404L91.0034 32.019Z" fill="#D5D6DB"/>
<g id="Group_2">
<path id="Vector_10" d="M87.8872 35.6414C87.3412 35.9418 87.1597 36.6513 87.4824 37.2261L88.0051 38.1572C88.3459 38.7213 89.0559 38.9194 89.591 38.5995C90.1003 38.2949 90.2713 37.6264 89.9819 37.0695L89.4592 36.1384C89.1368 35.5642 88.4333 35.3416 87.8872 35.6414Z" fill="#3A556A"/>
<path id="Vector_11" d="M83.5336 38.4138C82.9876 38.7143 82.8061 39.4238 83.1288 39.9985L83.6515 40.9297C83.9923 41.4938 84.7023 41.6918 85.2375 41.372C85.7467 41.0673 85.9177 40.3988 85.6284 39.842L85.1056 38.9109C84.783 38.3367 84.0795 38.1142 83.5336 38.4138Z" fill="#3A556A"/>
<path id="Vector_12" d="M79.1786 41.187C78.6332 41.488 78.4525 42.1967 78.7749 42.771L79.2976 43.7021C79.6384 44.2662 80.3484 44.4642 80.8836 44.1444C81.3928 43.8398 81.5638 43.1713 81.2745 42.6144L80.7518 41.6833C80.4291 41.1086 79.7249 40.8864 79.1786 41.187Z" fill="#3A556A"/>
<path id="Vector_13" d="M74.8251 43.9594C74.2797 44.2604 74.099 44.9692 74.4213 45.5435L74.944 46.4746C75.2848 47.0387 75.9948 47.2368 76.53 46.9169C77.0392 46.6123 77.2102 45.9437 76.9209 45.3869L76.3982 44.4558C76.0753 43.8812 75.3711 43.659 74.8251 43.9594Z" fill="#3A556A"/>
<path id="Vector_14" d="M70.4715 46.7316C69.926 47.0325 69.7453 47.741 70.0677 48.315L70.5904 49.2458C70.9127 49.8195 71.6163 50.0415 72.162 49.7414C72.7076 49.4414 72.8887 48.733 72.5664 48.1592L72.0437 47.2285C71.7221 46.6543 71.0187 46.4317 70.4726 46.731C70.4722 46.7313 70.4719 46.7314 70.4715 46.7316Z" fill="#3A556A"/>
<path id="Vector_15" d="M66.1177 49.5041C65.5722 49.805 65.3915 50.5135 65.7139 51.0875L66.2367 52.0182C66.559 52.592 67.2626 52.8139 67.8083 52.5139C68.354 52.2138 68.5351 51.5055 68.2128 50.9317L67.69 50.0009C67.3684 49.4268 66.665 49.2041 66.1189 49.5035C66.1184 49.5037 66.118 49.504 66.1177 49.5041Z" fill="#3A556A"/>
<path id="Vector_16" d="M61.764 52.2766C61.2185 52.5775 61.0377 53.2859 61.3602 53.8599L61.8829 54.7907C62.2059 55.3641 62.9098 55.5849 63.4548 55.2842C63.9989 54.9841 64.1797 54.2772 63.8588 53.7043L63.336 52.7735C63.0138 52.1994 62.3101 51.9769 61.764 52.2766Z" fill="#3A556A"/>
<path id="Vector_17" d="M57.4101 55.049C56.8646 55.3499 56.6839 56.0584 57.0063 56.6324L57.5291 57.5632C57.852 58.1366 58.5559 58.3574 59.1009 58.0568C59.6451 57.7566 59.8258 57.0497 59.5049 56.4768L58.9821 55.546C58.6599 54.9718 57.9563 54.7493 57.4101 55.049Z" fill="#3A556A"/>
<path id="Vector_18" d="M53.0566 57.8215C52.5111 58.1224 52.3303 58.8308 52.6528 59.4049L53.1755 60.3356C53.4985 60.909 54.2024 61.1298 54.7474 60.8292C55.2915 60.529 55.4723 59.8221 55.1514 59.2492L54.6286 58.3185C54.3062 57.7444 53.6025 57.5219 53.0566 57.8215Z" fill="#3A556A"/>
<path id="Vector_19" d="M48.7016 60.5949C48.1559 60.8949 47.9748 61.6033 48.2971 62.1771L48.2978 62.1783L48.8205 63.1091C49.1435 63.6825 49.8473 63.9033 50.3924 63.6027C50.9365 63.3025 51.1172 62.5956 50.7963 62.0227L50.2735 61.0919C49.9513 60.5177 49.2477 60.2952 48.7016 60.5949Z" fill="#3A556A"/>
<path id="Vector_20" d="M44.349 63.3664C43.8034 63.6664 43.6223 64.3748 43.9446 64.9486L43.9452 64.9498L44.468 65.8805C44.791 66.4539 45.4949 66.6747 46.0399 66.3741C46.584 66.074 46.7647 65.3671 46.4438 64.7941L45.9211 63.8634C45.5986 63.2894 44.895 63.0669 44.349 63.3664Z" fill="#3A556A"/>
</g>
</g>
</g>
</svg>
